<svg width="64" height="64" viewBox="0 0 64 64" fill="none" xmlns="http://www.w3.org/2000/svg">
<path d="M32.0026 5.33398C28.5007 5.33398 25.0331 6.02374 21.7977 7.36386C18.5624 8.70399 15.6227 10.6682 13.1464 13.1445C8.14545 18.1454 5.33594 24.9282 5.33594 32.0007C5.33594 43.7873 12.9893 53.7873 23.5759 57.334C24.9093 57.5473 25.3359 56.7207 25.3359 56.0007V51.494C17.9493 53.094 16.3759 47.9207 16.3759 47.9207C15.1493 44.8273 13.4159 44.0007 13.4159 44.0007C10.9893 42.3473 13.6026 42.4007 13.6026 42.4007C16.2693 42.5873 17.6826 45.1473 17.6826 45.1473C20.0026 49.2007 23.9226 48.0007 25.4426 47.3607C25.6826 45.6273 26.3759 44.454 27.1226 43.7873C21.2026 43.1207 14.9893 40.8273 14.9893 30.6673C14.9893 27.7073 16.0026 25.334 17.7359 23.4407C17.4693 22.774 16.5359 20.0007 18.0026 16.4007C18.0026 16.4007 20.2426 15.6807 25.3359 19.1207C27.4426 18.534 29.7359 18.2407 32.0026 18.2407C34.2693 18.2407 36.5626 18.534 38.6693 19.1207C43.7626 15.6807 46.0026 16.4007 46.0026 16.4007C47.4693 20.0007 46.5359 22.774 46.2693 23.4407C48.0026 25.334 49.0159 27.7073 49.0159 30.6673C49.0159 40.854 42.7759 43.094 36.8293 43.7607C37.7893 44.5873 38.6693 46.214 38.6693 48.694V56.0007C38.6693 56.7207 39.0959 57.574 40.4559 57.334C51.0426 53.7607 58.6693 43.7873 58.6693 32.0007C58.6693 28.4987 57.9795 25.0311 56.6394 21.7958C55.2993 18.5604 53.335 15.6207 50.8588 13.1445C48.3826 10.6682 45.4428 8.70399 42.2075 7.36386C38.9721 6.02374 35.5045 5.33398 32.0026 5.33398V5.33398Z" fill="black"/>
</svg>
